HIERARCHY
ROOT hip
{
  OFFSET 0 90.174 2.4664
  CHANNELS 6 Xposition Yposition Zposition Zrotation Xrotation Yrotation
  JOINT abdomen
  {
    OFFSET 0 -1.186 -1.5018
    CHANNELS 6 Xposition Yposition Zposition Zrotation Xrotation Yrotation
    JOINT abdomen2
    {
      OFFSET 0 9.964 0.2134
      CHANNELS 6 Xposition Yposition Zposition Zrotation Xrotation Yrotation
      JOINT chest
      {
        OFFSET 0 13.134 -3.2573
        CHANNELS 6 Xposition Yposition Zposition Zrotation Xrotation Yrotation
        JOINT neck
        {
          OFFSET 0 20.686 -1.6905
          CHANNELS 6 Xposition Yposition Zposition Zrotation Xrotation Yrotation
          JOINT head
          {
            OFFSET 0 7.238 -0.1237
            CHANNELS 6 Xposition Yposition Zposition Zrotation Xrotation Yrotation
            End Site
            {
              OFFSET 0 0 0
            }
          }
        }
        JOINT lCollar
        {
          OFFSET 1.7069 20.075 5.0056
          CHANNELS 6 Xposition Yposition Zposition Zrotation Xrotation Yrotation
          JOINT lShldr
          {
            OFFSET 13.6458 -0.047 -4.849
            CHANNELS 6 Xposition Yposition Zposition Zrotation Xrotation Yrotation
            JOINT lForeArm
            {
              OFFSET 28.3255 -0.9759 2.2888
              CHANNELS 6 Xposition Yposition Zposition Zrotation Xrotation Yrotation
              JOINT lHand
              {
                OFFSET 22.1583 -0.53 10.8316
                CHANNELS 6 Xposition Yposition Zposition Zrotation Xrotation Yrotation
                JOINT lThumb1
                {
                  OFFSET 0.786 0.112 2.5817
                  CHANNELS 6 Xposition Yposition Zposition Zrotation Xrotation Yrotation
                  JOINT lThumb2
                  {
                    OFFSET 0.3601 -0.878 4.2331
                    CHANNELS 6 Xposition Yposition Zposition Zrotation Xrotation Yrotation
                    JOINT lThumb2_End
                    {
                      OFFSET 1.8127 -1.216 2.2227
                      CHANNELS 6 Xposition Yposition Zposition Zrotation Xrotation Yrotation
                      End Site
                      {
                        OFFSET 0.0181 -0.0122 0.0222
                      }
                    }
                  }
                }
                JOINT lCarpal1
                {
                  OFFSET 0.9571 1.114 1.7695
                  CHANNELS 6 Xposition Yposition Zposition Zrotation Xrotation Yrotation
                  JOINT lIndex1
                  {
                    OFFSET 4.1246 0.487 4.1451
                    CHANNELS 6 Xposition Yposition Zposition Zrotation Xrotation Yrotation
                    JOINT lIndex2
                    {
                      OFFSET 3.4052 -1.454 2.7682
                      CHANNELS 6 Xposition Yposition Zposition Zrotation Xrotation Yrotation
                      JOINT lIndex2_End
                      {
                        OFFSET 1.4531 -1.795 1.2713
                        CHANNELS 6 Xposition Yposition Zposition Zrotation Xrotation Yrotation
                        End Site
                        {
                          OFFSET 0.0145 -0.0179 0.0127
                        }
                      }
                    }
                  }
                  JOINT lMid1
                  {
                    OFFSET 5.6954 0.21 2.1184
                    CHANNELS 6 Xposition Yposition Zposition Zrotation Xrotation Yrotation
                    JOINT lMid2
                    {
                      OFFSET 3.9766 -1.54 2.3863
                      CHANNELS 6 Xposition Yposition Zposition Zrotation Xrotation Yrotation
                      JOINT lMid2_End
                      {
                        OFFSET 1.4042 -1.926 1.125
                        CHANNELS 6 Xposition Yposition Zposition Zrotation Xrotation Yrotation
                        End Site
                        {
                          OFFSET 0.014 -0.0193 0.0113
                        }
                      }
                    }
                  }
                }
                JOINT lCarpal2
                {
                  OFFSET 2.0956 0.66 -0.3894
                  CHANNELS 6 Xposition Yposition Zposition Zrotation Xrotation Yrotation
                  JOINT lRing1
                  {
                    OFFSET 5.0395 -0.09 2.4971
                    CHANNELS 6 Xposition Yposition Zposition Zrotation Xrotation Yrotation
                    JOINT lRing2
                    {
                      OFFSET 3.7921 -1.552 1.4806
                      CHANNELS 6 Xposition Yposition Zposition Zrotation Xrotation Yrotation
                      JOINT lRing2_End
                      {
                        OFFSET 1.4655 -1.808 0.9609
                        CHANNELS 6 Xposition Yposition Zposition Zrotation Xrotation Yrotation
                        End Site
                        {
                          OFFSET 0.0147 -0.0181 0.0096
                        }
                      }
                    }
                  }
                  JOINT lPinky1
                  {
                    OFFSET 4.9141 -1.269 0.3591
                    CHANNELS 6 Xposition Yposition Zposition Zrotation Xrotation Yrotation
                    JOINT lPinky2
                    {
                      OFFSET 3.1477 -1.685 0.8462
                      CHANNELS 6 Xposition Yposition Zposition Zrotation Xrotation Yrotation
                      JOINT lPinky2_End
                      {
                        OFFSET 0.8055 -1.585 0.7955
                        CHANNELS 6 Xposition Yposition Zposition Zrotation Xrotation Yrotation
                        End Site
                        {
                          OFFSET 0.0081 -0.0158 0.008
                        }
                      }
                    }
                  }
                }
              }
            }
          }
        }
        JOINT rCollar
        {
          OFFSET -1.7069 20.075 5.0056
          CHANNELS 6 Xposition Yposition Zposition Zrotation Xrotation Yrotation
          JOINT rShldr
          {
            OFFSET -13.6458 -0.047 -4.849
            CHANNELS 6 Xposition Yposition Zposition Zrotation Xrotation Yrotation
            JOINT rForeArm
            {
              OFFSET -28.3255 -0.9759 2.2888
              CHANNELS 6 Xposition Yposition Zposition Zrotation Xrotation Yrotation
              JOINT rHand
              {
                OFFSET -22.1583 -0.53 10.8316
                CHANNELS 6 Xposition Yposition Zposition Zrotation Xrotation Yrotation
                JOINT rThumb1
                {
                  OFFSET -0.786 0.112 2.5817
                  CHANNELS 6 Xposition Yposition Zposition Zrotation Xrotation Yrotation
                  JOINT rThumb2
                  {
                    OFFSET -0.3601 -0.878 4.2331
                    CHANNELS 6 Xposition Yposition Zposition Zrotation Xrotation Yrotation
                    JOINT rThumb2_End
                    {
                      OFFSET -1.8127 -1.216 2.2227
                      CHANNELS 6 Xposition Yposition Zposition Zrotation Xrotation Yrotation
                      End Site
                      {
                        OFFSET -0.0181 -0.0122 0.0222
                      }
                    }
                  }
                }
                JOINT rCarpal1
                {
                  OFFSET -0.9571 1.114 1.7695
                  CHANNELS 6 Xposition Yposition Zposition Zrotation Xrotation Yrotation
                  JOINT rIndex1
                  {
                    OFFSET -4.1246 0.487 4.1451
                    CHANNELS 6 Xposition Yposition Zposition Zrotation Xrotation Yrotation
                    JOINT rIndex2
                    {
                      OFFSET -3.4052 -1.454 2.7682
                      CHANNELS 6 Xposition Yposition Zposition Zrotation Xrotation Yrotation
                      JOINT rIndex2_End
                      {
                        OFFSET -1.4531 -1.795 1.2713
                        CHANNELS 6 Xposition Yposition Zposition Zrotation Xrotation Yrotation
                        End Site
                        {
                          OFFSET -0.0145 -0.018 0.0127
                        }
                      }
                    }
                  }
                  JOINT rMid1
                  {
                    OFFSET -5.6954 0.21 2.1184
                    CHANNELS 6 Xposition Yposition Zposition Zrotation Xrotation Yrotation
                    JOINT rMid2
                    {
                      OFFSET -3.9766 -1.54 2.3863
                      CHANNELS 6 Xposition Yposition Zposition Zrotation Xrotation Yrotation
                      JOINT rMid2_End
                      {
                        OFFSET -1.4042 -1.926 1.125
                        CHANNELS 6 Xposition Yposition Zposition Zrotation Xrotation Yrotation
                        End Site
                        {
                          OFFSET -0.014 -0.0193 0.0113
                        }
                      }
                    }
                  }
                }
                JOINT rCarpal2
                {
                  OFFSET -2.0956 0.66 -0.3894
                  CHANNELS 6 Xposition Yposition Zposition Zrotation Xrotation Yrotation
                  JOINT rRing1
                  {
                    OFFSET -5.0395 -0.09 2.4971
                    CHANNELS 6 Xposition Yposition Zposition Zrotation Xrotation Yrotation
                    JOINT rRing2
                    {
                      OFFSET -3.7921 -1.552 1.4806
                      CHANNELS 6 Xposition Yposition Zposition Zrotation Xrotation Yrotation
                      JOINT rRing2_End
                      {
                        OFFSET -1.4655 -1.808 0.9609
                        CHANNELS 6 Xposition Yposition Zposition Zrotation Xrotation Yrotation
                        End Site
                        {
                          OFFSET -0.0147 -0.0181 0.0096
                        }
                      }
                    }
                  }
                  JOINT rPinky1
                  {
                    OFFSET -4.9141 -1.269 0.3592
                    CHANNELS 6 Xposition Yposition Zposition Zrotation Xrotation Yrotation
                    JOINT rPinky2
                    {
                      OFFSET -3.1477 -1.685 0.8462
                      CHANNELS 6 Xposition Yposition Zposition Zrotation Xrotation Yrotation
                      JOINT rPinky2_End
                      {
                        OFFSET -0.8055 -1.585 0.7955
                        CHANNELS 6 Xposition Yposition Zposition Zrotation Xrotation Yrotation
                        End Site
                        {
                          OFFSET -0.0081 -0.0158 0.008
                        }
                      }
                    }
                  }
                }
              }
            }
          }
        }
      }
    }
  }
  JOINT lThigh
  {
    OFFSET 8.367 -8.2066 0.5982
    CHANNELS 6 Xposition Yposition Zposition Zrotation Xrotation Yrotation
    JOINT lShin
    {
      OFFSET 2.1923 -43.463 -0.4932
      CHANNELS 6 Xposition Yposition Zposition Zrotation Xrotation Yrotation
      JOINT lFoot
      {
        OFFSET 0.7333 -45.8593 -2.6451
        CHANNELS 6 Xposition Yposition Zposition Zrotation Xrotation Yrotation
        End Site
        {
          OFFSET 2.6618 -4.2699 12.3931
        }
      }
    }
  }
  JOINT rThigh
  {
    OFFSET -8.367 -8.2066 0.5982
    CHANNELS 6 Xposition Yposition Zposition Zrotation Xrotation Yrotation
    JOINT rShin
    {
      OFFSET -2.1923 -43.463 -0.4931
      CHANNELS 6 Xposition Yposition Zposition Zrotation Xrotation Yrotation
      JOINT rFoot
      {
        OFFSET -0.7333 -45.8593 -2.6451
        CHANNELS 6 Xposition Yposition Zposition Zrotation Xrotation Yrotation
        End Site
        {
          OFFSET -2.6618 -4.2699 12.3931
        }
      }
    }
  }
}
MOTION
Frames:	4
Frame Time:	0.0333333
0 90.174 2.4664 0 0 -0 0 -1.186 -1.5018 0 0 -0 0 9.964 0.2134 0 0 -0 0 13.134 -3.2573 0 0 -0 0 20.686 -1.6905 0 0 -0 0 7.238 -0.1237 0 0 -0 1.7069 20.075 5.0056 0 0 -0 13.6458 -0.047 -4.849 1.66051 0.0835086 5.75766 28.3255 -0.9759 2.2888 -0.0175111 0.895433 15.7816 22.1583 -0.53 10.8316 7.95139e-016 -1.98785e-016 -0 0.786 0.112 2.5817 5.46658e-016 -3.97569e-016 -0 0.3601 -0.878 4.2331 5.96354e-016 0 -0 1.8127 -1.216 2.2227 3.97569e-016 1.98785e-016 9.54166e-015 0.9571 1.114 1.7695 1.49089e-016 -3.97569e-016 -0 4.1246 0.487 4.1451 6.4605e-016 0 3.18055e-015 3.4052 -1.454 2.7682 5.96354e-016 0 3.18055e-015 1.4531 -1.795 1.2713 8.94531e-016 -1.98785e-016 6.36111e-015 5.6954 0.21 2.1184 6.4605e-016 0 3.18055e-015 3.9766 -1.54 2.3863 5.96354e-016 0 3.18055e-015 1.4042 -1.926 1.125 8.94531e-016 -1.98785e-016 6.36111e-015 2.0956 0.66 -0.3894 1.49089e-016 -3.97569e-016 -0 5.0395 -0.09 2.4971 6.4605e-016 0 3.18055e-015 3.7921 -1.552 1.4806 5.96354e-016 0 3.18055e-015 1.4655 -1.808 0.9609 8.94531e-016 -1.98785e-016 6.36111e-015 4.9141 -1.269 0.3591 6.4605e-016 0 3.18055e-015 3.1477 -1.685 0.8462 5.96354e-016 0 3.18055e-015 0.8055 -1.585 0.7955 8.94531e-016 -1.98785e-016 6.36111e-015 -1.7069 20.075 5.0056 0 0 -0 -13.6458 -0.047 -4.849 -1.4496 0.0636048 -5.0245 -28.3255 -0.9759 2.2888 -1.74811 1.20616 -16.8394 -22.1583 -0.53 10.8316 -1.19271e-015 1.98785e-016 -3.18055e-015 -0.786 0.112 2.5817 -3.97569e-016 1.98785e-016 -3.18055e-015 -0.3601 -0.878 4.2331 -2.98177e-016 1.98785e-016 -3.18055e-015 -1.8127 -1.216 2.2227 -2.98177e-016 3.97569e-016 -0 -0.9571 1.114 1.7695 4.96962e-016 0 -6.36111e-015 -4.1246 0.487 4.1451 -9.93923e-017 3.97569e-016 -0 -3.4052 -1.454 2.7682 -8.94531e-016 5.96354e-016 -0 -1.4531 -1.795 1.2713 -3.97569e-016 3.97569e-016 -0 -5.6954 0.21 2.1184 -9.93923e-017 3.97569e-016 -0 -3.9766 -1.54 2.3863 -8.94531e-016 5.96354e-016 -0 -1.4042 -1.926 1.125 -3.97569e-016 3.97569e-016 -0 -2.0956 0.66 -0.3894 4.96962e-016 0 -6.36111e-015 -5.0395 -0.09 2.4971 -9.93923e-017 3.97569e-016 -0 -3.7921 -1.552 1.4806 -8.94531e-016 5.96354e-016 -0 -1.4655 -1.808 0.9609 -3.97569e-016 3.97569e-016 -0 -4.9141 -1.269 0.3592 -9.93923e-017 3.97569e-016 -0 -3.1477 -1.685 0.8462 -8.94531e-016 5.96354e-016 -0 -0.8055 -1.585 0.7955 -3.97569e-016 3.97569e-016 -0 8.367 -8.2066 0.5982 -4.66115 -1.03232 0.120763 2.1923 -43.463 -0.4932 0.00990601 1.55097 0.177175 0.7333 -45.8593 -2.6451 4.65196 -0.54114 -0.255042 -8.367 -8.2066 0.5982 4.66115 -1.03222 -0.120763 -2.1923 -43.463 -0.4931 -0.00990459 1.5509 -0.177176 -0.7333 -45.8593 -2.6451 -4.65196 -0.541171 0.255041 
-2.30673 8.93324 -8.45361 -0 -72.0011 -0 0 -1.186 -1.5018 -0.836114 12.6011 0.249352 0 9.964 0.2134 -1.79801 25.1969 0.719839 0 13.134 -3.2573 -1.79801 25.1969 0.719838 0 20.686 -1.6905 -0.0576949 0.0333785 -0.0751656 0 7.238 -0.1237 -0.0366939 0.0577194 -0.0506909 1.7069 20.075 5.0056 -24.8737 4.84051 -18.7053 13.6458 -0.047 -4.849 -10.3783 2.20801 -11.535 28.3255 -0.9759 2.2888 -7.75839 0.136217 -41.3939 22.1583 -0.53 10.8316 -6.5122 2.57104 0.027298 0.786 0.112 2.5817 3.18055e-015 -1.31198e-014 -6.36111e-015 0.3601 -0.878 4.2331 -1.0461e-006 1.18591e-006 6.08751e-007 1.8127 -1.216 2.2227 7.72434e-031 1.39149e-014 -3.18055e-015 0.9571 1.114 1.7695 3.18055e-015 -9.93923e-015 -4.77083e-015 4.1246 0.487 4.1451 6.36111e-015 3.57812e-015 6.36111e-015 3.4052 -1.454 2.7682 -1.0461e-006 1.18591e-006 6.08751e-007 1.4531 -1.795 1.2713 1.59028e-015 9.54166e-015 3.18055e-015 5.6954 0.21 2.1184 6.36111e-015 3.57812e-015 6.36111e-015 3.9766 -1.54 2.3863 -1.0461e-006 1.18591e-006 6.08751e-007 1.4042 -1.926 1.125 1.59028e-015 9.54166e-015 3.18055e-015 2.0956 0.66 -0.3894 3.18055e-015 -9.93923e-015 -4.77083e-015 5.0395 -0.09 2.4971 6.36111e-015 3.57812e-015 6.36111e-015 3.7921 -1.552 1.4806 -1.0461e-006 1.18591e-006 6.08751e-007 1.4655 -1.808 0.9609 1.59028e-015 9.54166e-015 3.18055e-015 4.9141 -1.269 0.3591 6.36111e-015 3.57812e-015 6.36111e-015 3.1477 -1.685 0.8462 -1.0461e-006 1.18591e-006 6.08751e-007 0.8055 -1.585 0.7955 1.59028e-015 9.54166e-015 3.18055e-015 -1.7069 20.075 5.0056 16.707 1.54598 27.1836 -13.6458 -0.047 -4.849 7.86181 -6.83932 21.996 -28.3255 -0.9759 2.2888 6.39143 0.372388 48.7416 -22.1583 -0.53 10.8316 6.54527 2.47734 0.0153029 -0.786 0.112 2.5817 -8.50352e-007 3.63907e-006 2.70101e-007 -0.3601 -0.878 4.2331 2.02727e-006 -2.30542e-006 4.88727e-006 -1.8127 -1.216 2.2227 -1.06796e-006 1.28556e-006 2.54964e-007 -0.9571 1.114 1.7695 1.98785e-016 5.2181e-015 -0 -4.1246 0.487 4.1451 -8.50352e-007 3.63907e-006 2.70101e-007 -3.4052 -1.454 2.7682 2.02727e-006 -2.30542e-006 4.88727e-006 -1.4531 -1.795 1.2713 -1.06796e-006 1.28556e-006 2.54964e-007 -5.6954 0.21 2.1184 -8.50352e-007 3.63907e-006 2.70101e-007 -3.9766 -1.54 2.3863 2.02727e-006 -2.30542e-006 4.88727e-006 -1.4042 -1.926 1.125 -1.06796e-006 1.28556e-006 2.54964e-007 -2.0956 0.66 -0.3894 1.98785e-016 5.2181e-015 -0 -5.0395 -0.09 2.4971 -8.50352e-007 3.63907e-006 2.70101e-007 -3.7921 -1.552 1.4806 2.02727e-006 -2.30542e-006 4.88727e-006 -1.4655 -1.808 0.9609 -1.06796e-006 1.28556e-006 2.54964e-007 -4.9141 -1.269 0.3592 -8.50352e-007 3.63907e-006 2.70101e-007 -3.1477 -1.685 0.8462 2.02727e-006 -2.30542e-006 4.88727e-006 -0.8055 -1.585 0.7955 -1.06796e-006 1.28556e-006 2.54964e-007 8.367 -8.2066 0.5982 10.2025 -16.4245 17.6883 2.1923 -43.463 -0.4932 -1.93641 8.73001 1.32303 0.7333 -45.8593 -2.6451 10.9534 14.6258 -0.0222721 -8.367 -8.2066 0.5982 -19.06 -45.8894 -18.1718 -2.1923 -43.463 -0.4931 8.10243 75.16 -10.6919 -0.7333 -45.8593 -2.6451 -10.6149 18.3788 -1.00877 
-2.30673 8.93324 -8.45361 -0 -72.0011 -0 0 -1.186 -1.5018 -0.836111 12.6012 0.249349 8.88178e-016 9.964 0.2134 -1.79801 25.1969 0.719838 4.44089e-016 13.134 -3.2573 -1.79801 25.1969 0.719838 -4.44089e-016 20.686 -1.6905 -0.193943 0.0576441 -0.127733 4.44089e-016 7.238 -0.1237 -0.0366931 0.0577234 -0.0506904 1.7069 20.075 5.0056 -24.8737 4.84051 -18.7052 13.6458 -0.047 -4.849 -10.4024 2.10779 -11.6603 28.3255 -0.9759 2.2888 -7.75839 0.136224 -41.3938 22.1583 -0.53 10.8316 -6.5122 2.57103 0.0273095 0.786 0.112 2.5817 -1.3104e-006 1.78168e-006 1.78859e-007 0.3601 -0.878 4.2331 8.82781e-032 7.95139e-016 -6.36111e-015 1.8127 -1.216 2.2227 0 1.59028e-015 -0 0.9571 1.114 1.7695 1.59028e-015 5.96354e-015 1.59028e-015 4.1246 0.487 4.1451 -1.3104e-006 1.78168e-006 1.78859e-007 3.4052 -1.454 2.7682 -1.59028e-015 -1.98785e-015 -1.59028e-015 1.4531 -1.795 1.2713 -3.18055e-015 -3.57812e-015 -0 5.6954 0.21 2.1184 -1.3104e-006 1.78168e-006 1.78859e-007 3.9766 -1.54 2.3863 -1.59028e-015 -1.98785e-015 -1.59028e-015 1.4042 -1.926 1.125 -3.18055e-015 -3.57812e-015 -0 2.0956 0.66 -0.3894 1.59028e-015 5.96354e-015 1.59028e-015 5.0395 -0.09 2.4971 -1.3104e-006 1.78168e-006 1.78859e-007 3.7921 -1.552 1.4806 -1.59028e-015 -1.98785e-015 -1.59028e-015 1.4655 -1.808 0.9609 -3.18055e-015 -3.57812e-015 -0 4.9141 -1.269 0.3591 -1.3104e-006 1.78168e-006 1.78859e-007 3.1477 -1.685 0.8462 -1.59028e-015 -1.98785e-015 -1.59028e-015 0.8055 -1.585 0.7955 -3.18055e-015 -3.57812e-015 -0 -1.7069 20.075 5.0056 16.707 1.54598 27.1836 -13.6458 -0.047 -4.849 8.19139 -6.92709 21.9173 -28.3255 -0.9759 2.2888 6.39143 0.3724 48.7416 -22.1583 -0.53 10.8316 6.54528 2.47735 0.01534 -0.786 0.112 2.5817 -1.98785e-016 5.81445e-015 3.18055e-015 -0.3601 -0.878 4.2331 -9.93923e-016 9.0447e-015 4.77083e-015 -1.8127 -1.216 2.2227 -7.95139e-016 5.71506e-015 3.18055e-015 -0.9571 1.114 1.7695 5.96354e-016 2.5345e-015 1.59028e-015 -4.1246 0.487 4.1451 3.97569e-015 1.93815e-015 3.02153e-014 -3.4052 -1.454 2.7682 -1.78906e-015 1.3418e-015 4.77083e-015 -1.4531 -1.795 1.2713 -1.98785e-016 1.2424e-015 4.77083e-015 -5.6954 0.21 2.1184 3.97569e-015 1.93815e-015 3.02153e-014 -3.9766 -1.54 2.3863 -1.78906e-015 1.3418e-015 4.77083e-015 -1.4042 -1.926 1.125 -1.98785e-016 1.2424e-015 4.77083e-015 -2.0956 0.66 -0.3894 5.96354e-016 2.5345e-015 1.59028e-015 -5.0395 -0.09 2.4971 3.97569e-015 1.93815e-015 3.02153e-014 -3.7921 -1.552 1.4806 -1.78906e-015 1.3418e-015 4.77083e-015 -1.4655 -1.808 0.9609 -1.98785e-016 1.2424e-015 4.77083e-015 -4.9141 -1.269 0.3592 3.97569e-015 1.93815e-015 3.02153e-014 -3.1477 -1.685 0.8462 -1.78906e-015 1.3418e-015 4.77083e-015 -0.8055 -1.585 0.7955 -1.98785e-016 1.2424e-015 4.77083e-015 8.367 -8.2066 0.5982 10.2025 -16.4244 17.6883 2.1923 -43.463 -0.4932 -1.93641 8.72994 1.32302 0.7333 -45.8593 -2.6451 10.9534 14.6259 -0.0222758 -8.367 -8.2066 0.5982 -19.0601 -45.8893 -18.1719 -2.1923 -43.463 -0.4931 8.10248 75.16 -10.6919 -0.7333 -45.8593 -2.6451 -10.6149 18.3789 -1.00876 
-2.30673 8.93324 -8.45361 -0 -72.0011 -0 0 -1.186 -1.5018 -0.836114 12.6011 0.249352 0 9.964 0.2134 -1.79801 25.1969 0.719839 0 13.134 -3.2573 -1.79801 25.1969 0.719838 0 20.686 -1.6905 -0.330203 0.0821139 -0.180258 0 7.238 -0.1237 -0.0366936 0.0577197 -0.050691 1.7069 20.075 5.0056 -24.8737 4.84051 -18.7053 13.6458 -0.047 -4.849 -10.4268 2.00757 -11.7857 28.3255 -0.9759 2.2888 -7.75838 0.136218 -41.3938 22.1583 -0.53 10.8316 -6.5122 2.57104 0.0273015 0.786 0.112 2.5817 -6.36111e-015 -8.34896e-015 1.59028e-015 0.3601 -0.878 4.2331 -1.04831e-006 1.18375e-006 6.07881e-007 1.8127 -1.216 2.2227 -1.59028e-015 3.97569e-016 1.59028e-015 0.9571 1.114 1.7695 -4.77083e-015 -8.74653e-015 1.59028e-015 4.1246 0.487 4.1451 -1.59028e-015 1.23246e-014 4.77083e-015 3.4052 -1.454 2.7682 -1.04831e-006 1.18375e-006 6.07881e-007 1.4531 -1.795 1.2713 -4.77083e-015 -9.93923e-015 3.18055e-015 5.6954 0.21 2.1184 -1.59028e-015 1.23246e-014 4.77083e-015 3.9766 -1.54 2.3863 -1.04831e-006 1.18375e-006 6.07881e-007 1.4042 -1.926 1.125 -4.77083e-015 -9.93923e-015 3.18055e-015 2.0956 0.66 -0.3894 -4.77083e-015 -8.74653e-015 1.59028e-015 5.0395 -0.09 2.4971 -1.59028e-015 1.23246e-014 4.77083e-015 3.7921 -1.552 1.4806 -1.04831e-006 1.18375e-006 6.07881e-007 1.4655 -1.808 0.9609 -4.77083e-015 -9.93923e-015 3.18055e-015 4.9141 -1.269 0.3591 -1.59028e-015 1.23246e-014 4.77083e-015 3.1477 -1.685 0.8462 -1.04831e-006 1.18375e-006 6.07881e-007 0.8055 -1.585 0.7955 -4.77083e-015 -9.93923e-015 3.18055e-015 -1.7069 20.075 5.0056 16.707 1.54598 27.1836 -13.6458 -0.047 -4.849 8.52128 -7.01539 21.8391 -28.3255 -0.9759 2.2888 6.39144 0.372395 48.7416 -22.1583 -0.53 10.8316 6.54528 2.47735 0.0153496 -0.786 0.112 2.5817 3.97569e-016 4.57205e-015 -1.59028e-015 -0.3601 -0.878 4.2331 -1.98785e-016 4.72114e-015 -0 -1.8127 -1.216 2.2227 -3.97569e-016 4.77083e-015 1.59028e-015 -0.9571 1.114 1.7695 7.95139e-016 1.2424e-015 -1.59028e-015 -4.1246 0.487 4.1451 5.96354e-016 7.45443e-015 1.11319e-014 -3.4052 -1.454 2.7682 -3.97569e-016 4.02539e-015 -1.59028e-015 -1.4531 -1.795 1.2713 -7.95139e-016 -2.23633e-015 1.59028e-015 -5.6954 0.21 2.1184 5.96354e-016 7.45443e-015 1.11319e-014 -3.9766 -1.54 2.3863 -3.97569e-016 4.02539e-015 -1.59028e-015 -1.4042 -1.926 1.125 -7.95139e-016 -2.23633e-015 1.59028e-015 -2.0956 0.66 -0.3894 7.95139e-016 1.2424e-015 -1.59028e-015 -5.0395 -0.09 2.4971 5.96354e-016 7.45443e-015 1.11319e-014 -3.7921 -1.552 1.4806 -3.97569e-016 4.02539e-015 -1.59028e-015 -1.4655 -1.808 0.9609 -7.95139e-016 -2.23633e-015 1.59028e-015 -4.9141 -1.269 0.3592 5.96354e-016 7.45443e-015 1.11319e-014 -3.1477 -1.685 0.8462 -3.97569e-016 4.02539e-015 -1.59028e-015 -0.8055 -1.585 0.7955 -7.95139e-016 -2.23633e-015 1.59028e-015 8.367 -8.2066 0.5982 10.2025 -16.4245 17.6883 2.1923 -43.463 -0.4932 -1.93641 8.73001 1.32303 0.7333 -45.8593 -2.6451 10.9534 14.6258 -0.022274 -8.367 -8.2066 0.5982 -19.06 -45.8894 -18.1718 -2.1923 -43.463 -0.4931 8.10239 75.16 -10.6918 -0.7333 -45.8593 -2.6451 -10.6149 18.3789 -1.00877 
